<?xml version="1.0" encoding="utf-8"?>
<!-- Generator: Adobe Illustrator 21.1.0, SVG Export Plug-In . SVG Version: 6.00 Build 0)  -->
<svg version="1.1" id="Layer_1" xmlns="http://www.w3.org/2000/svg" xmlns:xlink="http://www.w3.org/1999/xlink" x="0px" y="0px"
	 viewBox="0 0 425.2 141.7" style="enable-background:new 0 0 425.2 141.7;" xml:space="preserve">
<metadata><?xpacket begin="﻿" id="W5M0MpCehiHzreSzNTczkc9d"?>
<x:xmpmeta xmlns:x="adobe:ns:meta/" x:xmptk="Adobe XMP Core 5.6-c137 79.159768, 2016/08/11-13:24:42        ">
   <rdf:RDF xmlns:rdf="http://www.w3.org/1999/02/22-rdf-syntax-ns#">
      <rdf:Description rdf:about=""/>
   </rdf:RDF>
</x:xmpmeta>
                                                                                                    
                                                                                                    
                                                                                                    
                                                                                                    
                                                                                                    
                                                                                                    
                                                                                                    
                                                                                                    
                                                                                                    
                                                                                                    
                                                                                                    
                                                                                                    
                                                                                                    
                                                                                                    
                                                                                                    
                                                                                                    
                                                                                                    
                                                                                                    
                                                                                                    
                                                                                                    
                           
<?xpacket end="w"?></metadata>
<style type="text/css">
	.st0{fill:#FFFFFF;}
</style>
<g>
	<path class="st0" d="M24.9,58.3c0-0.1,0-0.3,0-0.6c0-0.3,0-0.6,0-0.9c0-0.3,0-0.6,0-0.9c0-0.3,0-0.5,0-0.7c0-2.1,0.1-4.1,0.5-6.1
		c0.3-2,0.6-4,1-6c0.3-2,0.7-4,1-6c0.3-2,0.5-4.1,0.5-6.1c0-0.2,0-0.6,0-1.1c0-0.6,0-1.1,0-1.8c0-0.6,0-1.2,0-1.8c0-0.6,0-0.9,0-1.2
		c-0.3-0.5-0.7-0.8-1.2-1c-0.5-0.2-1.1-0.4-1.6-0.6c-0.5-0.2-1-0.4-1.4-0.7c-0.4-0.3-0.6-0.7-0.6-1.3c0-0.4,0.1-0.8,0.3-1
		c0.2-0.3,0.5-0.5,0.9-0.6c0.3-0.1,0.7-0.2,1.1-0.2c0.4,0,0.8,0,1.1,0c2.2,0,3.9,0.7,5,2.1c1.1,1.4,1.7,3.3,1.7,5.5
		c0,2.1-0.2,4.1-0.6,6.1c-0.4,2-0.8,4-1.2,6c-0.5,2-0.9,4-1.2,6c-0.4,2-0.6,4.1-0.6,6.1V52c0.2-0.2,0.5-0.5,0.9-0.9
		c0.4-0.4,0.9-0.9,1.4-1.4c0.5-0.5,0.9-0.9,1.4-1.4c0.4-0.4,0.7-0.8,0.8-0.9c2.5-3,4.8-6.2,6.9-9.6c2-3.3,3.9-6.6,5.6-9.7
		c1.7-3.1,3.3-6,4.8-8.6c1.5-2.7,3-4.9,4.4-6.6c1.5-1.8,3-2.9,4.6-3.5c1.6-0.6,3.3-0.3,5.2,0.7c0,0.6-0.2,1-0.6,1.2
		c-0.4,0.3-0.8,0.5-1.4,0.6c-0.5,0.1-1,0.3-1.5,0.5c-0.5,0.2-0.9,0.4-1.1,0.9c-4.4,7.9-9.1,15.6-14.2,23.2
		c-5.1,7.6-10.5,14.9-16.3,21.7c-0.5,0.4-0.9,0.7-1.3,0.8c-0.4,0.1-0.8,0.2-1.4,0.2s-1-0.1-1.4-0.2C25.9,58.9,25.4,58.7,24.9,58.3z"
		/>
	<path class="st0" d="M57,53.8c-0.3,0.1-0.8,0.2-1.5,0.4c-0.7,0.2-1.4,0.4-2.2,0.6s-1.5,0.4-2.1,0.5c-0.7,0.2-1.1,0.3-1.4,0.3
		c-0.2,0-0.5,0-0.9,0c-0.4,0-0.8-0.1-1.3-0.1c-0.5,0-0.9-0.1-1.3-0.1c-0.4,0-0.7-0.1-0.9-0.1c0-1.7,0.4-3.2,1.2-4.7
		c0.8-1.5,1.7-2.9,2.7-4.3s2.1-2.8,3.2-4.2c1.1-1.4,2-2.9,2.6-4.5c-0.1-0.6-0.5-0.9-0.9-1c-0.5,0-0.9-0.1-1.4-0.1
		c-0.6,0-1.1,0-1.3,0.1c-0.2,0-0.6,0.4-1,1c-0.3,0.5-0.9,1.4-1.8,2.7c-0.9,1.3-1.8,2.6-2.7,4.1c-0.9,1.4-1.8,2.8-2.7,4.1
		c-0.9,1.3-1.4,2.2-1.8,2.6c-0.4,0.8-0.6,1.4-0.8,1.9c-0.1,0.5-0.2,1.1-0.2,1.7c0,0.8,0.2,1.5,0.5,2.1c0.3,0.6,0.8,1,1.4,1.4
		s1.2,0.6,1.9,0.8c0.7,0.2,1.4,0.2,2.1,0.2c0.6,0,1.6-0.1,2.7-0.2c1.2-0.1,2.3-0.3,3.5-0.7c1.1-0.3,2.1-0.8,3-1.4
		c0.9-0.6,1.3-1.4,1.3-2.3c0-0.1,0-0.2,0-0.5C57,54.1,57,53.9,57,53.8z"/>
	<path class="st0" d="M54.5,32.8c0.2,0.6,0.4,0.8,0.9,1.2c0.5,0.4,1.3,0.7,2.1,0.7c0.5,0,1.3-0.2,1.5-0.4c0.2-0.2,0.4-0.4,0.6-0.7
		c0.1-0.3,0.2-0.5,0.2-0.8c0-0.3,0-0.6,0-0.8c0-0.6-0.2-1.1-0.5-1.4c-0.3-0.3-0.6-0.7-1.1-0.9c-0.5-0.2-0.9-0.4-1.6-0.4
		c-0.7-0.1-0.6,0-1.5,0.4c-0.2,0.1-0.7,0.5-0.8,1.1C54.2,31.3,54.3,32.1,54.5,32.8z"/>
	<path class="st0" d="M58.5,56.3c0-0.4,0-0.7,0-1c0-0.2,0-0.5,0.1-0.7c0.1-0.2,0.2-0.4,0.3-0.7c0.1-0.2,0.3-0.5,0.6-0.9
		c0.4-0.6,1.1-1.8,2.1-3.4c1-1.6,2.1-3.3,3.3-5.1c1.2-1.8,2.3-3.5,3.3-5.1c1-1.6,1.8-2.7,2.2-3.4c0,0,0.2-0.1,0.4-0.1
		c0.2,0,0.4,0,0.5,0c0.1,0,0.3,0,0.5,0c0.2,0,0.4,0,0.4,0.1c0,0,0.1,0.2,0.3,0.3c0.2,0.2,0.3,0.4,0.6,0.6c0.2,0.2,0.4,0.4,0.6,0.6
		c0.2,0.2,0.3,0.3,0.4,0.3c0.4,0,0.9-0.1,1.3-0.4c0.5-0.3,0.9-0.6,1.4-0.9c0.5-0.3,1-0.7,1.5-0.9c0.5-0.3,1-0.4,1.6-0.4
		c0.6,0,1.2,0.1,1.7,0.4c0.5,0.3,0.9,0.6,1.3,1c0.4,0.4,0.7,0.9,0.9,1.4c0.2,0.5,0.3,1,0.3,1.5c0,1.1-0.2,2.1-0.5,3
		c-0.3,1-0.6,1.9-1,2.9c-0.4,0.9-0.7,1.9-1,2.8c-0.3,0.9-0.5,1.9-0.5,2.9c0,1,0.1,1.7,0.3,2.2c0.2,0.4,0.9,0.7,1.9,0.7
		c1.2,0,2.4-0.2,3.6-0.6c1.1-0.4,2.3-0.6,3.5-0.6c0,1.1-0.3,2-1,2.8c-0.7,0.7-1.5,1.3-2.5,1.8c-1,0.4-2.1,0.7-3.2,0.9
		c-1.1,0.2-2.2,0.2-3.1,0.2c-1.8,0-3-0.5-3.8-1.5c-0.8-1-1.2-2.3-1.2-4c0-1.1,0.2-2.1,0.6-3.1c0.4-1,0.8-1.9,1.3-2.8
		c0.5-0.9,0.9-1.8,1.4-2.8c0.4-0.9,0.6-1.9,0.6-3c0-0.3,0-0.6-0.1-1.1c-0.1-0.5-0.4-0.7-0.9-0.7c-1.5,0-2.9,0.5-4.1,1.5
		c-1.2,1-2.3,2.2-3.3,3.7c-1,1.5-1.9,3.1-2.7,4.8c-0.8,1.7-1.6,3.3-2.3,4.8c-0.7,1.5-1.4,2.7-2,3.7c-0.6,1-1.3,1.5-2,1.5
		c-1,0-1.8-0.3-2.4-0.9C58.8,58,58.5,57.2,58.5,56.3z M84.1,31.5c-1.1,0.1-2.7,0.5-3.4,0.2c-0.8-0.3-1.6-0.7-2.3-1.2
		c-0.7-0.6-1.6-1.6-2.2-2.2c-0.6-0.6-0.7-1.5-1.5-1.9c-0.8-0.5-1.1-0.9-2.1-1.2c-1.1-0.3-1.8-0.7-3.2-0.7c-0.1,0-2,0.2-2.4,0.3
		c-0.4,0.1-2.9,1-4.7,1.5c-0.4,0.1-4,2.5-4.2,3.7c0,0.4,0,0.5-0.1,0.5c-0.4,0-3.5,0.6-3.6,0.3c-0.1-0.3,0.1-1.1,0.3-1.5
		c0.4-0.7,0.7-1,1.9-2.2c0.6-0.6,3.3-2.3,4.1-2.8s5.2-2.5,6-2.8c0.8-0.3,4.6-0.7,4.9-0.7c1.4,0,2.4,0.5,3.4,1.2c1,0.7,1.8,1.2,2.7,2
		c0.9,0.8,1.8,2.5,2.8,3.1c1,0.7,2.8,0,4.3,0c1.9,0,3.4-0.3,4.3-0.8c0.9-0.5,1.6-1.1,2.1-1.7c0.4-0.6,0.7-1.2,0.9-1.7
		c0.1-0.5,0.4-0.8,0.8-0.8c0.5,0,1,0.1,1.6,0.2s0.8,0.6,0.8,1.2c-0.3,1.3-0.8,2.4-1.6,3.3c-0.7,0.8-1.6,1.5-2.6,2.1
		c-1,0.6-2.1,1-3.4,1.3C86.6,30.6,85.3,31.2,84.1,31.5z"/>
	<path class="st0" d="M88.8,54.7c0.4-2.6,1.2-5.1,2.4-7.3c1.2-2.2,2.5-4.1,4-5.8c1.5-1.6,3.1-3,4.9-4.1c1.8-1.1,3.5-1.7,5.1-2
		c1.7-0.3,3.2-0.2,4.6,0.2c1.4,0.5,2.6,1.4,3.4,2.8c0,1.1-0.2,2.1-0.7,3c-0.5,1-1,1.9-1.6,2.9c-0.6,1-1.1,2-1.6,3
		c-0.5,1-0.7,2.1-0.7,3.3c0,1.2,0.3,2.2,0.8,2.9c0.5,0.7,1.5,1.1,2.8,1.1c1.1,0,2.2-0.2,3.2-0.5c1-0.3,2.1-0.5,3.2-0.5
		c0.2,0,0.5,0,0.9,0c0.4,0,0.7,0,0.9,0c-0.6,0.8-1.3,1.5-2.1,2c-0.9,0.6-1.8,1-2.8,1.4c-1,0.4-2,0.7-3,0.9c-1,0.2-2,0.3-2.9,0.3
		c-0.8,0-1.6-0.2-2.2-0.6c-0.6-0.4-1.2-0.9-1.7-1.5c-0.5-0.6-0.8-1.3-1.1-2c-0.3-0.8-0.4-1.5-0.4-2.3c-0.7,0.8-1.4,1.6-2.3,2.5
		c-0.8,0.9-1.7,1.6-2.6,2.3c-0.9,0.7-1.9,1.3-2.9,1.7c-1,0.5-2.1,0.7-3.2,0.7c-1.2,0-2.2-0.5-3.1-1.3C89.3,57,88.8,55.9,88.8,54.7z
		 M93.4,52.5c0,0.4,0,0.8,0,1.2c0,0.5,0.3,0.8,0.9,0.9c1.2-0.3,2.5-0.9,3.9-1.8c1.5-0.9,2.9-2.1,4.2-3.3c1.3-1.3,2.4-2.6,3.3-4.1
		c0.9-1.5,1.3-2.9,1.3-4.2c0-0.1,0-0.2,0-0.5c0-0.2,0-0.4,0-0.4c-1.6,0-3.2,0.3-4.8,1c-1.6,0.6-3.1,1.5-4.4,2.7
		c-1.3,1.1-2.3,2.4-3.2,3.9C93.8,49.4,93.4,50.9,93.4,52.5z"/>
</g>
<g>
	<path class="st0" d="M30.2,77.4c-0.1-3.3-1.7-5-5-5c-0.3,0-0.8,0-1.5,0.1l-0.2-0.8c4.8-0.3,10.6-1.1,17.4-2.2
		c6.8-1.1,11.1-1.8,12.8-2c1.7-0.2,3.4-0.3,4.8-0.3c4.6,0,8.2,0.4,10.8,1.2s5,1.9,7,3.2c2,1.3,3.6,3.1,4.8,5.4c1.3,2.5,2,5.2,2,8
		c0,2.8-0.4,5.3-1.1,7.5c-0.7,2.2-1.8,4-3.2,5.6c-4.1,4.7-9.4,7-15.8,7c-2.2,0-4.3-0.3-6.1-1c-3.4-1.3-5.5-3.5-6.5-6.7l0.9-0.5
		c0.8,1.1,2.1,1.7,3.9,1.7c2.8,0,5.3-1.7,7.4-5c1.3-2.1,2-4.9,2-8.4c0-4.8-1.2-8.4-3.7-10.8C59.2,72.9,56.8,72,54,72
		c-0.7,0-1.4,0.1-2.1,0.2l-4.2,0.6v49.8c0.1,1.5,0.6,2.8,1.7,3.8c1.1,1.1,2.3,1.6,3.8,1.6h1.1v0.9H23.6V128h1.1
		c1.5,0,2.8-0.5,3.8-1.6c1.1-1.1,1.6-2.3,1.7-3.8V77.4z"/>
	<path class="st0" d="M124.2,67.7c7.4,0,13.7,1.2,19,3.7s9.4,6,12.3,10.7c2.9,4.7,4.3,10.3,4.3,16.7c0,9.8-3.2,17.4-9.5,22.9
		c-6.3,5.5-15,8.3-26.1,8.3c-11.1,0-19.8-2.8-26.1-8.3c-6.3-5.5-9.5-13.1-9.5-22.9s3.2-17.4,9.5-22.9
		C104.4,70.4,113.1,67.7,124.2,67.7z M112,118.6c2.9,4.7,7,7.1,12.2,7.1c5.2,0,9.3-2.4,12.2-7.1c2.9-4.7,4.4-11.3,4.4-19.8
		c0-8.4-1.5-15-4.4-19.8c-2.9-4.7-7-7.1-12.2-7.1c-5.2,0-9.3,2.4-12.2,7.1c-2.9,4.7-4.4,11.3-4.4,19.8
		C107.6,107.3,109,113.9,112,118.6z"/>
	<path class="st0" d="M233.6,69.7c-1.4,0-2.7,0.5-3.7,1.5c-1,1-1.6,2.2-1.6,3.6v44.2c0,4.2,0.3,7.5,0.9,9.8l0.3,1.2h-0.8l-41-36.5
		v29.2c0,2.1,0.9,3.6,2.7,4.5c0.8,0.5,1.7,0.7,2.6,0.7h1.6v0.9h-31.3V128h1.6c1.4,0,2.7-0.5,3.7-1.5c1-1,1.5-2.2,1.5-3.7V78.3
		c0-4-0.3-7.2-0.9-9.5l-0.3-1.2h0.9l41,36.5V75c-0.1-1.5-0.6-2.7-1.6-3.7c-1-1-2.3-1.5-3.7-1.5h-1.6v-0.9h31.3v0.9H233.6z"/>
	<path class="st0" d="M275.5,73.1v49.6c0.1,1.5,0.6,2.7,1.7,3.8c1.1,1,2.3,1.5,3.8,1.5h1.1v0.9h-30.7V128h1.1c1.5,0,2.8-0.5,3.8-1.5
		c1.1-1,1.6-2.3,1.7-3.7V73.1h-8.5c-3.4,0.1-6.1,1.1-8,3c-1.9,2-2.9,4.7-2.9,8.1v0.6l-0.9,0.1V67.3c0.8,0.3,2.2,0.7,4.3,1
		c2.1,0.3,4,0.5,5.8,0.5h37.9c1.8,0,3.7-0.2,5.7-0.5c2.1-0.3,3.5-0.7,4.4-1v17.6l-0.9-0.1v-0.6c0-4.6-1.7-7.9-5.1-9.8
		c-1.7-0.9-3.6-1.3-5.9-1.4H275.5z"/>
	<path class="st0" d="M355.9,128h0.7v0.9h-32.4V128h0.8c1.3,0,2.2-0.4,2.8-1.2c0.6-0.8,0.9-1.5,0.9-2.1c0-0.7-0.1-1.4-0.4-2.1
		l-3.3-8h-18.3l-3.4,8c-0.3,0.7-0.4,1.3-0.4,1.8s0.1,1,0.3,1.5c0.2,0.5,0.6,1,1.3,1.5c0.7,0.4,1.4,0.6,2.1,0.6h0.8v0.9h-19.1V128
		h0.8c1.3,0,2.6-0.4,3.9-1.2c1.3-0.8,2.4-1.9,3.2-3.5L316,79.6c3-6.4,4.7-10.6,4.9-12.8h0.8l27.1,56.4
		C350.6,126.4,353,128,355.9,128z M308.5,110.3h14.6L316,93.2L308.5,110.3z"/>
	<path class="st0" d="M405,109.5c0,6.9-2.5,12.1-7.4,15.5c-4.9,3.4-11.4,5.1-19.6,5.1c-4.7,0-8.9-0.5-12.5-1.6
		c-3.6-1.1-6.2-2.4-7.8-4c-0.5-1.3-0.8-2.6-0.8-4.1c0-1.5,0.1-2.9,0.3-4.2c0.6-3.4,1.7-6,3.2-7.9h0.8c-0.1,0.3-0.1,0.7-0.1,1.1
		c0,4.2,1.7,8,5,11.3c3.3,3.3,7.9,5,13.7,5c3.9,0,6.9-0.8,8.9-2.4c2.1-1.6,3.1-3.5,3.1-5.6c0-2.1-0.7-3.9-2.1-5.4
		c-1.4-1.5-3.7-3-6.9-4.5l-14-6.5c-3.9-1.8-6.8-4.2-8.6-7.4c-1.4-2.5-2.1-5.3-2.1-8.3c0-6.2,2.1-10.8,6.3-14
		c3.5-2.6,8.1-3.9,13.9-3.9c3.8,0,8.6,0.3,14.5,0.9h6.7l-1.9,14h-0.9c0-3.1-1.2-5.7-3.7-7.6c-2.5-1.9-5.6-2.9-9.4-2.9
		c-3.8,0-6.7,0.7-8.8,2c-2.1,1.3-3.2,3.1-3.4,5.2c-0.2,2.7,1.5,5,5.1,6.8c0.6,0.3,1.5,0.7,2.5,1.1l16,7.4
		C401.7,97.6,405,102.6,405,109.5z"/>
</g>
</svg>
